# xmcd
#
# Track frame offsets: 
#        150
#        16174
#        29581
#        47238
#        64249
#        78610
#        97236
#        113894
#        130871
#        146551
#
# Disc length: 2171 seconds
#
# Revision: 4
# Processed by: cddbd v1.5.2PL0 Copyright (c) Steve Scherf et al.
# Submitted via: ExactAudioCopy v0.95b4
#
DISCID=8f08790a
DTITLE=Rodney Atkins - If You're Going Through Hell
DYEAR=2006
DGENRE=Country
TTITLE0=These Are My People
TTITLE1=About The South
TTITLE2=Watching You
TTITLE3=Cleaning This Gun (Come On In Boy)
TTITLE4=In The Middle
TTITLE5=A Man On A Tractor
TTITLE6=Wasted Whiskey
TTITLE7=Invisibly Shaken
TTITLE8=Angel's Hands
TTITLE9=If You're Going Through Hell (Before The Devil Even Knows)
EXTD=
EXTT0=
EXTT1=
EXTT2=
EXTT3=
EXTT4=
EXTT5=
EXTT6=
EXTT7=
EXTT8=
EXTT9=
PLAYORDER=
